<mxfile host="app.diagrams.net" modified="2021-10-25T09:00:21.056Z" agent="5.0 (Windows NT 10.0; Win64; x64) AppleWebKit/537.36 (KHTML, like Gecko) Chrome/95.0.4638.54 Safari/537.36" etag="qS2c-QzuMEiz2tPhbYGM" version="15.0.6" type="github">
  <diagram name="Page-1" id="c7558073-3199-34d8-9f00-42111426c3f3">
    <mxGraphModel dx="1580" dy="884" grid="1" gridSize="10" guides="0" tooltips="1" connect="1" arrows="1" fold="1" page="1" pageScale="1" pageWidth="826" pageHeight="1169" background="none" math="0" shadow="1">
      <root>
        <mxCell id="0" />
        <mxCell id="1" parent="0" />
        <mxCell id="e5rQZKcpQOIRYlzECpdS-96" value="&lt;b&gt;NGINX&lt;/b&gt;" style="whiteSpace=wrap;html=1;strokeWidth=2;rounded=1;" vertex="1" parent="1">
          <mxGeometry x="220" y="110" width="120" height="60" as="geometry" />
        </mxCell>
        <mxCell id="e5rQZKcpQOIRYlzECpdS-102" value="" style="edgeStyle=orthogonalEdgeStyle;rounded=0;orthogonalLoop=1;jettySize=auto;html=1;strokeWidth=1;shape=flexArrow;fillColor=#1ba1e2;strokeColor=#006EAF;" edge="1" parent="1" source="e5rQZKcpQOIRYlzECpdS-99" target="e5rQZKcpQOIRYlzECpdS-100">
          <mxGeometry relative="1" as="geometry" />
        </mxCell>
        <mxCell id="e5rQZKcpQOIRYlzECpdS-99" value="&lt;b&gt;send socket buffer&lt;/b&gt;" style="rounded=1;whiteSpace=wrap;html=1;strokeWidth=2;fillColor=#dae8fc;strokeColor=#6c8ebf;" vertex="1" parent="1">
          <mxGeometry x="220" y="210" width="120" height="60" as="geometry" />
        </mxCell>
        <mxCell id="e5rQZKcpQOIRYlzECpdS-104" style="edgeStyle=orthogonalEdgeStyle;shape=flexArrow;rounded=0;orthogonalLoop=1;jettySize=auto;html=1;exitX=0.5;exitY=1;exitDx=0;exitDy=0;entryX=0.5;entryY=0;entryDx=0;entryDy=0;strokeWidth=1;fillColor=#1ba1e2;strokeColor=#006EAF;" edge="1" parent="1" source="e5rQZKcpQOIRYlzECpdS-100" target="e5rQZKcpQOIRYlzECpdS-103">
          <mxGeometry relative="1" as="geometry" />
        </mxCell>
        <mxCell id="e5rQZKcpQOIRYlzECpdS-100" value="&lt;b&gt;UDP layer&lt;/b&gt;" style="rounded=1;whiteSpace=wrap;html=1;strokeWidth=2;fillColor=#dae8fc;strokeColor=#6c8ebf;" vertex="1" parent="1">
          <mxGeometry x="220" y="310" width="120" height="60" as="geometry" />
        </mxCell>
        <mxCell id="e5rQZKcpQOIRYlzECpdS-101" value="" style="shape=flexArrow;endArrow=classic;html=1;exitX=0.5;exitY=1;exitDx=0;exitDy=0;entryX=0.5;entryY=0;entryDx=0;entryDy=0;fillColor=#1ba1e2;strokeColor=#006EAF;strokeWidth=1;endSize=5;startSize=5;" edge="1" parent="1" source="e5rQZKcpQOIRYlzECpdS-96" target="e5rQZKcpQOIRYlzECpdS-99">
          <mxGeometry width="50" height="50" relative="1" as="geometry">
            <mxPoint x="370" y="180" as="sourcePoint" />
            <mxPoint x="380" y="220" as="targetPoint" />
          </mxGeometry>
        </mxCell>
        <mxCell id="e5rQZKcpQOIRYlzECpdS-123" value="" style="edgeStyle=orthogonalEdgeStyle;shape=flexArrow;rounded=0;orthogonalLoop=1;jettySize=auto;html=1;strokeWidth=1;entryX=0.5;entryY=0;entryDx=0;entryDy=0;fillColor=#1ba1e2;strokeColor=#006EAF;" edge="1" parent="1" source="e5rQZKcpQOIRYlzECpdS-103" target="e5rQZKcpQOIRYlzECpdS-106">
          <mxGeometry relative="1" as="geometry" />
        </mxCell>
        <mxCell id="e5rQZKcpQOIRYlzECpdS-103" value="&lt;b&gt;IP layer&lt;/b&gt;" style="rounded=1;whiteSpace=wrap;html=1;strokeWidth=2;fillColor=#dae8fc;strokeColor=#6c8ebf;" vertex="1" parent="1">
          <mxGeometry x="220" y="420" width="120" height="60" as="geometry" />
        </mxCell>
        <mxCell id="e5rQZKcpQOIRYlzECpdS-106" value="" style="rounded=0;whiteSpace=wrap;html=1;strokeWidth=2;fillColor=#dae8fc;strokeColor=#6c8ebf;" vertex="1" parent="1">
          <mxGeometry x="220" y="525" width="120" height="35" as="geometry" />
        </mxCell>
        <mxCell id="e5rQZKcpQOIRYlzECpdS-118" value="" style="rounded=0;whiteSpace=wrap;html=1;strokeWidth=2;fillColor=#dae8fc;strokeColor=#6c8ebf;" vertex="1" parent="1">
          <mxGeometry x="220" y="560" width="120" height="30" as="geometry" />
        </mxCell>
        <mxCell id="e5rQZKcpQOIRYlzECpdS-147" style="edgeStyle=orthogonalEdgeStyle;shape=flexArrow;rounded=0;orthogonalLoop=1;jettySize=auto;html=1;exitX=0.5;exitY=1;exitDx=0;exitDy=0;entryX=0.5;entryY=0;entryDx=0;entryDy=0;strokeWidth=1;fillColor=#1ba1e2;strokeColor=#006EAF;" edge="1" parent="1" source="e5rQZKcpQOIRYlzECpdS-119" target="e5rQZKcpQOIRYlzECpdS-124">
          <mxGeometry relative="1" as="geometry" />
        </mxCell>
        <mxCell id="e5rQZKcpQOIRYlzECpdS-119" value="" style="rounded=0;whiteSpace=wrap;html=1;strokeWidth=2;fillColor=#dae8fc;strokeColor=#6c8ebf;" vertex="1" parent="1">
          <mxGeometry x="220" y="590" width="120" height="35" as="geometry" />
        </mxCell>
        <mxCell id="e5rQZKcpQOIRYlzECpdS-122" value="&lt;b&gt;Qdisc流控&lt;/b&gt;" style="text;html=1;strokeColor=none;fillColor=none;align=center;verticalAlign=middle;whiteSpace=wrap;rounded=0;" vertex="1" parent="1">
          <mxGeometry x="240" y="565" width="80" height="20" as="geometry" />
        </mxCell>
        <mxCell id="e5rQZKcpQOIRYlzECpdS-148" style="edgeStyle=orthogonalEdgeStyle;shape=flexArrow;rounded=0;orthogonalLoop=1;jettySize=auto;html=1;exitX=0.5;exitY=1;exitDx=0;exitDy=0;strokeWidth=1;fillColor=#1ba1e2;strokeColor=#006EAF;" edge="1" parent="1" source="e5rQZKcpQOIRYlzECpdS-124" target="e5rQZKcpQOIRYlzECpdS-127">
          <mxGeometry relative="1" as="geometry" />
        </mxCell>
        <mxCell id="e5rQZKcpQOIRYlzECpdS-124" value="&lt;b&gt;网卡驱动&lt;/b&gt;" style="rounded=1;whiteSpace=wrap;html=1;strokeWidth=2;" vertex="1" parent="1">
          <mxGeometry x="220" y="660" width="120" height="60" as="geometry" />
        </mxCell>
        <mxCell id="e5rQZKcpQOIRYlzECpdS-149" style="edgeStyle=orthogonalEdgeStyle;shape=flexArrow;rounded=0;orthogonalLoop=1;jettySize=auto;html=1;exitX=0.5;exitY=1;exitDx=0;exitDy=0;entryX=0.5;entryY=0;entryDx=0;entryDy=0;strokeWidth=1;fillColor=#1ba1e2;strokeColor=#006EAF;" edge="1" parent="1" source="e5rQZKcpQOIRYlzECpdS-127" target="e5rQZKcpQOIRYlzECpdS-128">
          <mxGeometry relative="1" as="geometry" />
        </mxCell>
        <mxCell id="e5rQZKcpQOIRYlzECpdS-127" value="&lt;b&gt;Ring Buffer&lt;/b&gt;" style="ellipse;whiteSpace=wrap;html=1;aspect=fixed;rounded=1;strokeWidth=2;" vertex="1" parent="1">
          <mxGeometry x="250" y="750" width="60" height="60" as="geometry" />
        </mxCell>
        <mxCell id="e5rQZKcpQOIRYlzECpdS-175" style="edgeStyle=orthogonalEdgeStyle;shape=flexArrow;rounded=0;orthogonalLoop=1;jettySize=auto;html=1;exitX=0.5;exitY=1;exitDx=0;exitDy=0;strokeWidth=1;fillColor=#1ba1e2;strokeColor=#006EAF;" edge="1" parent="1" source="e5rQZKcpQOIRYlzECpdS-128" target="e5rQZKcpQOIRYlzECpdS-176">
          <mxGeometry relative="1" as="geometry">
            <mxPoint x="280" y="940" as="targetPoint" />
          </mxGeometry>
        </mxCell>
        <mxCell id="e5rQZKcpQOIRYlzECpdS-128" value="" style="rounded=0;whiteSpace=wrap;html=1;strokeWidth=2;" vertex="1" parent="1">
          <mxGeometry x="170" y="840" width="220" height="60" as="geometry" />
        </mxCell>
        <mxCell id="e5rQZKcpQOIRYlzECpdS-151" style="edgeStyle=orthogonalEdgeStyle;shape=flexArrow;rounded=0;orthogonalLoop=1;jettySize=auto;html=1;exitX=0.5;exitY=0;exitDx=0;exitDy=0;strokeWidth=1;fillColor=#1ba1e2;strokeColor=#006EAF;" edge="1" parent="1" source="e5rQZKcpQOIRYlzECpdS-129">
          <mxGeometry relative="1" as="geometry">
            <mxPoint x="210" y="800" as="targetPoint" />
          </mxGeometry>
        </mxCell>
        <mxCell id="e5rQZKcpQOIRYlzECpdS-129" value="中断" style="text;html=1;strokeColor=#006EAF;fillColor=#1ba1e2;align=center;verticalAlign=middle;whiteSpace=wrap;rounded=0;fontColor=#ffffff;" vertex="1" parent="1">
          <mxGeometry x="180" y="855" width="60" height="30" as="geometry" />
        </mxCell>
        <mxCell id="e5rQZKcpQOIRYlzECpdS-132" value="NIC queue" style="text;html=1;strokeColor=#006EAF;fillColor=#1ba1e2;align=center;verticalAlign=middle;whiteSpace=wrap;rounded=0;fontColor=#ffffff;" vertex="1" parent="1">
          <mxGeometry x="250" y="855" width="60" height="30" as="geometry" />
        </mxCell>
        <mxCell id="e5rQZKcpQOIRYlzECpdS-133" value="DMA Engine" style="text;html=1;strokeColor=#006EAF;fillColor=#1ba1e2;align=center;verticalAlign=middle;whiteSpace=wrap;rounded=0;fontColor=#ffffff;" vertex="1" parent="1">
          <mxGeometry x="320" y="855" width="60" height="30" as="geometry" />
        </mxCell>
        <mxCell id="e5rQZKcpQOIRYlzECpdS-154" value="" style="edgeStyle=orthogonalEdgeStyle;shape=flexArrow;rounded=0;orthogonalLoop=1;jettySize=auto;html=1;strokeWidth=1;fillColor=#1ba1e2;strokeColor=#006EAF;" edge="1" parent="1" source="e5rQZKcpQOIRYlzECpdS-135" target="e5rQZKcpQOIRYlzECpdS-139">
          <mxGeometry relative="1" as="geometry" />
        </mxCell>
        <mxCell id="e5rQZKcpQOIRYlzECpdS-135" value="" style="rounded=0;whiteSpace=wrap;html=1;strokeWidth=2;" vertex="1" parent="1">
          <mxGeometry x="460" y="782.5" width="220" height="60" as="geometry" />
        </mxCell>
        <mxCell id="e5rQZKcpQOIRYlzECpdS-136" value="中断" style="text;html=1;strokeColor=#006EAF;fillColor=#1ba1e2;align=center;verticalAlign=middle;whiteSpace=wrap;rounded=0;fontColor=#ffffff;" vertex="1" parent="1">
          <mxGeometry x="470" y="797.5" width="60" height="30" as="geometry" />
        </mxCell>
        <mxCell id="e5rQZKcpQOIRYlzECpdS-137" value="NIC queue" style="text;html=1;strokeColor=#006EAF;fillColor=#1ba1e2;align=center;verticalAlign=middle;whiteSpace=wrap;rounded=0;fontColor=#ffffff;" vertex="1" parent="1">
          <mxGeometry x="540" y="797.5" width="60" height="30" as="geometry" />
        </mxCell>
        <mxCell id="e5rQZKcpQOIRYlzECpdS-138" value="DMA Engine" style="text;html=1;strokeColor=#006EAF;fillColor=#1ba1e2;align=center;verticalAlign=middle;whiteSpace=wrap;rounded=0;fontColor=#ffffff;" vertex="1" parent="1">
          <mxGeometry x="610" y="797.5" width="60" height="30" as="geometry" />
        </mxCell>
        <mxCell id="e5rQZKcpQOIRYlzECpdS-170" style="edgeStyle=orthogonalEdgeStyle;shape=flexArrow;rounded=0;orthogonalLoop=1;jettySize=auto;html=1;exitX=0.5;exitY=0;exitDx=0;exitDy=0;entryX=0.5;entryY=1;entryDx=0;entryDy=0;strokeWidth=1;fillColor=#1ba1e2;strokeColor=#006EAF;" edge="1" parent="1" source="e5rQZKcpQOIRYlzECpdS-139" target="e5rQZKcpQOIRYlzECpdS-167">
          <mxGeometry relative="1" as="geometry" />
        </mxCell>
        <mxCell id="e5rQZKcpQOIRYlzECpdS-139" value="&lt;b&gt;Ring Buffer&lt;/b&gt;" style="ellipse;whiteSpace=wrap;html=1;aspect=fixed;rounded=1;strokeWidth=2;" vertex="1" parent="1">
          <mxGeometry x="530" y="652.5" width="80" height="80" as="geometry" />
        </mxCell>
        <mxCell id="e5rQZKcpQOIRYlzECpdS-158" value="" style="edgeStyle=orthogonalEdgeStyle;shape=flexArrow;rounded=0;orthogonalLoop=1;jettySize=auto;html=1;strokeWidth=1;fillColor=#1ba1e2;strokeColor=#006EAF;" edge="1" parent="1" source="e5rQZKcpQOIRYlzECpdS-141" target="e5rQZKcpQOIRYlzECpdS-146">
          <mxGeometry relative="1" as="geometry" />
        </mxCell>
        <mxCell id="e5rQZKcpQOIRYlzECpdS-141" value="&lt;b&gt;receive socket buffer&lt;/b&gt;" style="rounded=1;whiteSpace=wrap;html=1;strokeWidth=2;fillColor=#dae8fc;strokeColor=#6c8ebf;" vertex="1" parent="1">
          <mxGeometry x="510" y="220" width="120" height="60" as="geometry" />
        </mxCell>
        <mxCell id="e5rQZKcpQOIRYlzECpdS-157" value="" style="edgeStyle=orthogonalEdgeStyle;shape=flexArrow;rounded=0;orthogonalLoop=1;jettySize=auto;html=1;strokeWidth=1;fillColor=#1ba1e2;strokeColor=#006EAF;" edge="1" parent="1" source="e5rQZKcpQOIRYlzECpdS-143" target="e5rQZKcpQOIRYlzECpdS-141">
          <mxGeometry relative="1" as="geometry" />
        </mxCell>
        <mxCell id="e5rQZKcpQOIRYlzECpdS-143" value="&lt;b&gt;UDP layer&lt;/b&gt;" style="rounded=1;whiteSpace=wrap;html=1;strokeWidth=2;fillColor=#dae8fc;strokeColor=#6c8ebf;" vertex="1" parent="1">
          <mxGeometry x="510" y="320" width="120" height="60" as="geometry" />
        </mxCell>
        <mxCell id="e5rQZKcpQOIRYlzECpdS-156" value="" style="edgeStyle=orthogonalEdgeStyle;shape=flexArrow;rounded=0;orthogonalLoop=1;jettySize=auto;html=1;strokeWidth=1;fillColor=#1ba1e2;strokeColor=#006EAF;" edge="1" parent="1" source="e5rQZKcpQOIRYlzECpdS-145" target="e5rQZKcpQOIRYlzECpdS-143">
          <mxGeometry relative="1" as="geometry" />
        </mxCell>
        <mxCell id="e5rQZKcpQOIRYlzECpdS-145" value="&lt;b&gt;IP layer&lt;/b&gt;" style="rounded=1;whiteSpace=wrap;html=1;strokeWidth=2;fillColor=#dae8fc;strokeColor=#6c8ebf;" vertex="1" parent="1">
          <mxGeometry x="510" y="430" width="120" height="60" as="geometry" />
        </mxCell>
        <mxCell id="e5rQZKcpQOIRYlzECpdS-146" value="&lt;b&gt;NGINX&lt;/b&gt;" style="whiteSpace=wrap;html=1;strokeWidth=2;rounded=1;" vertex="1" parent="1">
          <mxGeometry x="510" y="120" width="120" height="60" as="geometry" />
        </mxCell>
        <mxCell id="e5rQZKcpQOIRYlzECpdS-150" value="&lt;b&gt;中断处理，删除skb&lt;/b&gt;" style="text;html=1;strokeColor=none;fillColor=none;align=center;verticalAlign=middle;whiteSpace=wrap;rounded=0;" vertex="1" parent="1">
          <mxGeometry x="310" y="730" width="110" height="20" as="geometry" />
        </mxCell>
        <mxCell id="e5rQZKcpQOIRYlzECpdS-152" value="&lt;b&gt;DMA传输结束，产生中断请求&lt;/b&gt;" style="text;html=1;strokeColor=none;fillColor=none;align=center;verticalAlign=middle;whiteSpace=wrap;rounded=0;" vertex="1" parent="1">
          <mxGeometry x="170" y="750" width="70" height="50" as="geometry" />
        </mxCell>
        <mxCell id="e5rQZKcpQOIRYlzECpdS-160" value="&lt;b&gt;DMA&lt;/b&gt;" style="text;html=1;strokeColor=none;fillColor=none;align=center;verticalAlign=middle;whiteSpace=wrap;rounded=0;" vertex="1" parent="1">
          <mxGeometry x="290" y="810" width="40" height="20" as="geometry" />
        </mxCell>
        <mxCell id="e5rQZKcpQOIRYlzECpdS-161" value="&lt;b&gt;DMA&lt;/b&gt;" style="text;html=1;strokeColor=none;fillColor=none;align=center;verticalAlign=middle;whiteSpace=wrap;rounded=0;" vertex="1" parent="1">
          <mxGeometry x="580" y="752.5" width="40" height="20" as="geometry" />
        </mxCell>
        <mxCell id="e5rQZKcpQOIRYlzECpdS-166" value="" style="shape=flexArrow;endArrow=classic;html=1;strokeWidth=1;fillColor=#1ba1e2;strokeColor=#006EAF;" edge="1" parent="1">
          <mxGeometry width="50" height="50" relative="1" as="geometry">
            <mxPoint x="569.5" y="902.5" as="sourcePoint" />
            <mxPoint x="569.5" y="842.5" as="targetPoint" />
          </mxGeometry>
        </mxCell>
        <mxCell id="e5rQZKcpQOIRYlzECpdS-171" style="edgeStyle=orthogonalEdgeStyle;shape=flexArrow;rounded=0;orthogonalLoop=1;jettySize=auto;html=1;exitX=0.5;exitY=0;exitDx=0;exitDy=0;entryX=0.5;entryY=1;entryDx=0;entryDy=0;strokeWidth=1;fillColor=#1ba1e2;strokeColor=#006EAF;" edge="1" parent="1" source="e5rQZKcpQOIRYlzECpdS-167" target="e5rQZKcpQOIRYlzECpdS-145">
          <mxGeometry relative="1" as="geometry" />
        </mxCell>
        <mxCell id="e5rQZKcpQOIRYlzECpdS-167" value="&lt;b&gt;网卡驱动&lt;/b&gt;" style="rounded=1;whiteSpace=wrap;html=1;strokeWidth=2;arcSize=0;" vertex="1" parent="1">
          <mxGeometry x="510" y="540" width="120" height="60" as="geometry" />
        </mxCell>
        <mxCell id="e5rQZKcpQOIRYlzECpdS-174" value="&lt;b&gt;代理收包&lt;/b&gt;" style="text;html=1;strokeColor=none;fillColor=none;align=center;verticalAlign=middle;whiteSpace=wrap;rounded=0;" vertex="1" parent="1">
          <mxGeometry x="530" y="900" width="80" height="20" as="geometry" />
        </mxCell>
        <mxCell id="e5rQZKcpQOIRYlzECpdS-176" value="&lt;b&gt;代理发包&lt;/b&gt;" style="text;html=1;strokeColor=none;fillColor=none;align=center;verticalAlign=middle;whiteSpace=wrap;rounded=0;" vertex="1" parent="1">
          <mxGeometry x="250" y="940" width="60" height="20" as="geometry" />
        </mxCell>
        <mxCell id="e5rQZKcpQOIRYlzECpdS-177" value="&lt;b&gt;中断收包&lt;/b&gt;" style="text;html=1;strokeColor=none;fillColor=none;align=center;verticalAlign=middle;whiteSpace=wrap;rounded=0;" vertex="1" parent="1">
          <mxGeometry x="480" y="510" width="80" height="20" as="geometry" />
        </mxCell>
        <mxCell id="e5rQZKcpQOIRYlzECpdS-178" value="&lt;b&gt;软中断进行协议处理&lt;/b&gt;" style="text;html=1;strokeColor=none;fillColor=none;align=center;verticalAlign=middle;whiteSpace=wrap;rounded=0;" vertex="1" parent="1">
          <mxGeometry x="590" y="510" width="70" height="20" as="geometry" />
        </mxCell>
        <mxCell id="e5rQZKcpQOIRYlzECpdS-180" value="Text" style="text;html=1;strokeColor=none;fillColor=none;align=center;verticalAlign=middle;whiteSpace=wrap;rounded=0;" vertex="1" parent="1">
          <mxGeometry x="160" y="320" width="40" height="20" as="geometry" />
        </mxCell>
      </root>
    </mxGraphModel>
  </diagram>
</mxfile>
